<?xml version="1.0" encoding="UTF-8"?>
<!DOCTYPE svg PUBLIC "-//W3C//DTD SVG 1.1//EN" "http://www.w3.org/Graphics/SVG/1.1/DTD/svg11.dtd">
<!-- Creator: CorelDRAW 2020 (64-Bit) -->
<svg xmlns="http://www.w3.org/2000/svg" xml:space="preserve" width="65.5455mm" height="58.7862mm" version="1.1" style="shape-rendering:geometricPrecision; text-rendering:geometricPrecision; image-rendering:optimizeQuality; fill-rule:evenodd; clip-rule:evenodd"
viewBox="0 0 1183.87 1061.79"
 xmlns:xlink="http://www.w3.org/1999/xlink"
 xmlns:xodm="http://www.corel.com/coreldraw/odm/2003">
 <defs>
  <style type="text/css">
   <![CDATA[
    .fil1 {fill:none}
    .fil0 {fill:#FEFEFE}
   ]]>
  </style>
 </defs>
 <g id="Capa_x0020_1">
  <metadata id="CorelCorpID_0Corel-Layer"/>
  <g id="_2476957402992">
   <path class="fil0" d="M639.66 372.02l-357.44 -0.12c-91.14,1.25 -71.96,68.4 -49.22,83.85 34.46,23.41 298.21,-1.31 340.99,16.62 18.75,7.86 25.67,40.34 1.68,53.5 -14.39,7.89 -229.65,3.5 -256.43,3.53 -41.65,0.05 -133.09,-11.78 -156.74,14.49 -15.2,16.89 -13.47,48.95 1.67,64.83 39.09,40.99 337.44,-6.36 418.77,22.85 8.83,19.79 8.32,27.89 -0.09,48.01 -66.94,19.65 -307.8,-7.71 -345.13,13.04 -41.17,22.89 -31.82,88.39 39.17,89.89 58.98,1.25 119.75,-0.13 178.94,-0.13 38.14,0 165.69,-16.82 129.55,46.32 -13.54,23.66 -130.43,13.96 -166.32,13.93 -54.08,-0.03 -130.65,-7.13 -109.14,66.33 12.69,43.35 91.38,30.78 140.65,30.77 107.1,0 251.73,8.21 354.34,-1.6 98.16,-9.38 174,-72.29 206.6,-144.2 30.58,-67.46 30.21,-251.34 21,-334.47 -11.9,-107.39 -88.73,-151.99 -150.82,-200.64 -33.67,-26.39 -67.12,-48.6 -101.52,-76.95 -23.62,-19.47 -76.46,-72.77 -116.87,-57.23 -20.7,7.96 -33.54,34.12 -19.9,62.47 16.78,34.87 130.45,73.19 127.2,134.76 -3.43,64.81 -75.42,50.16 -130.95,50.15zm46.52 -61.41c-4.09,-15.17 -7.38,-14.81 -20.65,-24.53 -7.81,-5.72 -15.17,-10.9 -24.17,-17.94 -19.73,-15.44 -34.38,-24.56 -46.26,-43.18 -29.43,-46.14 -23.11,-96.99 10.02,-131.54 68.91,-71.86 135.88,-19.42 183.04,17.47 61.76,48.3 209.58,150.25 246.97,199.37 67.99,89.33 59.76,162.37 59.76,290.47 0,121.51 -4.24,211.03 -69.26,286.28 -48.72,56.37 -126.49,111.73 -233.57,115.4 -116.24,3.99 -240.15,0.05 -357.25,0.05 -94.39,0 -213.26,4.04 -182.2,-154.87 -21.88,-12.32 -60.41,-11.69 -85.96,-57.3 -26.04,-46.47 -7.37,-69.02 -5.94,-110.78 -40.62,-22.02 -73.69,-44.18 -71.99,-104.73 1.44,-51.49 37.22,-84.85 74.55,-97.76 -32.2,-150.96 39.34,-166.17 177.01,-166.16 114.41,0.01 231.88,2.6 345.9,-0.25z"/>
   <rect class="fil1" x="0" y="-0" width="1183.87" height="1061.79"/>
  </g>
 </g>
</svg>
