<?xml version="1.0" encoding="UTF-8"?>
<!DOCTYPE svg PUBLIC "-//W3C//DTD SVG 1.1//EN" "http://www.w3.org/Graphics/SVG/1.1/DTD/svg11.dtd">
<!-- Creator: CorelDRAW 2020 (64-Bit) -->
<svg xmlns="http://www.w3.org/2000/svg" xml:space="preserve" width="65.5455mm" height="58.7862mm" version="1.1" style="shape-rendering:geometricPrecision; text-rendering:geometricPrecision; image-rendering:optimizeQuality; fill-rule:evenodd; clip-rule:evenodd"
viewBox="0 0 43161.53 38710.55"
 xmlns:xlink="http://www.w3.org/1999/xlink"
 xmlns:xodm="http://www.corel.com/coreldraw/odm/2003">
 <defs>
  <style type="text/css">
   <![CDATA[
    .fil1 {fill:none}
    .fil0 {fill:#00AFEF}
   ]]>
  </style>
 </defs>
 <g id="Capa_x0020_1">
  <metadata id="CorelCorpID_0Corel-Layer"/>
  <g id="_2476957379280">
   <path class="fil0" d="M23320.75 13563l-13031.46 -4.48c-3322.84,45.44 -2623.65,2493.66 -1794.41,3057.07 1256.22,853.48 10871.99,-47.87 12431.64,606.08 683.45,286.58 936.05,1470.62 61.31,1950.53 -524.69,287.83 -8372.4,127.49 -9348.75,128.54 -1518.3,1.65 -4852.14,-429.54 -5714.31,528.44 -554.26,615.83 -491.11,1784.79 60.71,2363.41 1425.25,1494.26 12302.44,-231.79 15267.59,833.2 321.81,721.38 303.3,1016.92 -3.29,1750.35 -2440.65,716.51 -11221.65,-281.18 -12582.7,475.44 -1500.85,834.38 -1160.21,3222.42 1428.02,3277.08 2150.19,45.44 4365.77,-4.81 6523.67,-4.81 1390.55,0 6040.59,-613.32 4723.07,1688.85 -493.68,862.63 -4755.14,508.82 -6063.51,508.03 -1971.74,-1.19 -4763.11,-259.97 -3978.97,2418.13 462.79,1580.59 3331.34,1122.01 5127.92,1121.95 3904.49,0 9177.67,299.16 12918.6,-58.41 3578.54,-342.02 6343.83,-2635.57 7532.02,-5257.11 1114.84,-2459.55 1101.4,-9163.32 765.57,-12194.12 -433.82,-3915.23 -3235.07,-5541.06 -5498.45,-7314.85 -1227.7,-962.13 -2446.91,-1771.95 -3701.08,-2805.59 -861.31,-709.86 -2787.48,-2653.09 -4260.94,-2086.45 -754.7,290.2 -1222.7,1244.03 -725.4,2277.35 611.81,1271.36 4756,2668.3 4637.27,4912.92 -125.05,2362.89 -2749.62,1828.58 -4774.11,1828.45zm1696.03 -2238.82c-149.28,-552.94 -269.19,-539.84 -752.73,-894.31 -284.73,-208.68 -552.94,-397.4 -881.27,-654.22 -719.34,-562.75 -1253.32,-895.23 -1686.41,-1574.27 -1072.82,-1682.2 -842.42,-3536.13 365.47,-4795.84 2512.23,-2620.03 4953.74,-708.15 6673.41,636.96 2251.6,1760.95 7640.81,5477.78 9003.83,7268.69 2478.78,3256.93 2178.64,5919.69 2178.64,10590.08 0,4430.04 -154.42,7693.88 -2525.01,10436.98 -1776.1,2055.17 -4611.39,4073.33 -8515.55,4207.34 -4238.02,145.46 -8755.18,1.78 -13024.42,1.84 -3441.44,0 -7774.94,147.17 -6642.66,-5646.28 -797.64,-449.23 -2202.28,-426.25 -3134.05,-2088.88 -949.42,-1694.18 -268.8,-2516.45 -216.58,-4038.7 -1480.76,-802.77 -2686.47,-1610.68 -2624.77,-3818.16 52.42,-1877.18 1357.1,-3093.29 2717.95,-3564.25 -1173.97,-5503.85 1434.14,-6058.24 6453.34,-6057.78 4171.05,0.4 8453.85,94.63 12610.82,-9.22z"/>
   <rect class="fil1" x="0.02" y="-0.02" width="43161.52" height="38710.54"/>
  </g>
 </g>
</svg>
