<?xml version="1.0" encoding="UTF-8"?>
<!DOCTYPE svg PUBLIC "-//W3C//DTD SVG 1.1//EN" "http://www.w3.org/Graphics/SVG/1.1/DTD/svg11.dtd">
<!-- Creator: CorelDRAW 2020 (64-Bit) -->
<svg xmlns="http://www.w3.org/2000/svg" xml:space="preserve" width="65.5455mm" height="58.7862mm" version="1.1" style="shape-rendering:geometricPrecision; text-rendering:geometricPrecision; image-rendering:optimizeQuality; fill-rule:evenodd; clip-rule:evenodd"
viewBox="0 0 2461.49 2207.65"
 xmlns:xlink="http://www.w3.org/1999/xlink"
 xmlns:xodm="http://www.corel.com/coreldraw/odm/2003">
 <defs>
  <style type="text/css">
   <![CDATA[
    .fil1 {fill:none}
    .fil0 {fill:#FFF212}
   ]]>
  </style>
 </defs>
 <g id="Capa_x0020_1">
  <metadata id="CorelCorpID_0Corel-Layer"/>
  <g id="_2476957140112">
   <path class="fil0" d="M1131.51 773.49l743.18 -0.26c189.5,2.59 149.63,142.21 102.33,174.34 -71.64,48.67 -620.03,-2.73 -708.97,34.56 -38.98,16.34 -53.39,83.87 -3.5,111.24 29.92,16.41 477.47,7.27 533.16,7.33 86.59,0.09 276.72,-24.5 325.88,30.14 31.61,35.12 28.01,101.79 -3.46,134.78 -81.28,85.22 -701.6,-13.22 -870.7,47.52 -18.35,41.14 -17.3,57.99 0.19,99.82 139.19,40.86 639.97,-16.04 717.59,27.11 85.59,47.58 66.17,183.77 -81.44,186.89 -122.62,2.59 -248.98,-0.27 -372.04,-0.27 -79.3,0 -344.49,-34.98 -269.35,96.31 28.15,49.2 271.18,29.02 345.8,28.97 112.45,-0.07 271.64,-14.83 226.92,137.91 -26.39,90.14 -189.98,63.99 -292.44,63.98 -222.67,0 -523.4,17.06 -736.74,-3.33 -204.08,-19.51 -361.79,-150.31 -429.55,-299.81 -63.58,-140.27 -62.81,-522.58 -43.66,-695.43 24.74,-223.28 184.49,-316 313.57,-417.16 70.02,-54.87 139.55,-101.05 211.08,-160 49.12,-40.48 158.97,-151.3 243,-118.99 43.04,16.55 69.73,70.95 41.37,129.88 -34.89,72.51 -271.23,152.17 -264.46,280.18 7.13,134.75 156.81,104.28 272.27,104.28zm-96.72 -127.68c8.51,-31.53 15.35,-30.79 42.93,-51 16.24,-11.9 31.53,-22.66 50.26,-37.31 41.02,-32.09 71.48,-51.05 96.17,-89.78 61.19,-95.94 48.05,-201.66 -20.84,-273.5 -143.27,-149.42 -282.51,-40.39 -380.58,36.33 -128.41,100.43 -435.75,312.4 -513.48,414.53 -141.36,185.74 -124.25,337.6 -124.25,603.95 0,252.64 8.81,438.78 144,595.22 101.29,117.21 262.99,232.3 485.64,239.94 241.69,8.3 499.3,0.1 742.78,0.11 196.26,0 443.4,8.39 378.83,-322.01 45.49,-25.62 125.6,-24.31 178.73,-119.13 54.15,-96.62 15.33,-143.51 12.35,-230.33 84.45,-45.78 153.21,-91.86 149.69,-217.75 -2.99,-107.05 -77.39,-176.41 -155,-203.27 66.95,-313.88 -81.79,-345.5 -368.03,-345.47 -237.87,0.02 -482.12,5.4 -719.19,-0.53z"/>
   <rect class="fil1" x="-0" y="-0" width="2461.48" height="2207.65"/>
  </g>
 </g>
</svg>
