<?xml version="1.0" encoding="UTF-8"?>
<!DOCTYPE svg PUBLIC "-//W3C//DTD SVG 1.1//EN" "http://www.w3.org/Graphics/SVG/1.1/DTD/svg11.dtd">
<!-- Creator: CorelDRAW 2020 (64-Bit) -->
<svg xmlns="http://www.w3.org/2000/svg" xml:space="preserve" width="65.5455mm" height="58.7862mm" version="1.1" style="shape-rendering:geometricPrecision; text-rendering:geometricPrecision; image-rendering:optimizeQuality; fill-rule:evenodd; clip-rule:evenodd"
viewBox="0 0 2518.14 2258.46"
 xmlns:xlink="http://www.w3.org/1999/xlink"
 xmlns:xodm="http://www.corel.com/coreldraw/odm/2003">
 <defs>
  <style type="text/css">
   <![CDATA[
    .fil1 {fill:none}
    .fil0 {fill:#173153}
   ]]>
  </style>
 </defs>
 <g id="Capa_x0020_1">
  <metadata id="CorelCorpID_0Corel-Layer"/>
  <g id="_2153577915904">
   <g>
    <path class="fil0" d="M2203.06 1086.41c227.11,-161.18 120.45,-414.72 -63.72,-454.84 -45.85,-9.98 -538.59,-20.13 -577.32,5.51 -49.06,32.48 -29.12,103.88 27.64,115.26 141.34,28.34 493.86,-32.52 566.67,27.57 32.21,26.59 55.6,78.07 32.55,137.18 -23.76,60.94 -62.06,49.62 -120.12,79.74 -70.34,36.49 -22.46,82.95 -3.64,120.23 84.6,167.55 -163.65,185.98 -170.8,188.26 -55.25,129.52 62.01,79.71 61.79,202.64 -0.2,120.03 -91.83,82.23 -138.93,156.32 -12.24,83.92 58.12,147.84 -32.17,211.73 -50.85,35.99 -170.66,24.76 -245.17,24.76 -269.61,-0.02 -451.68,23.8 -626.04,-180.37 -66.77,-78.17 -43.83,-91.24 -178.15,-90.28 -90.24,0.64 -460.26,-14.24 -511.79,10.83 -49.54,29.64 -39.47,93.52 7.71,112.53 39.71,16 445.86,0.93 552.28,10.24 42.17,71.07 145.37,157.31 239.65,204.88 125.97,63.56 220.07,60.26 371.11,60.23 342.8,-0.07 558.21,58.51 571.46,-309.38 158.66,-79.14 113.89,-243.75 102.45,-320.5 139.56,-91.33 133.07,-126.91 134.56,-312.57z"/>
    <path class="fil0" d="M1495.15 417.76c99.01,0 113.42,31.29 156.25,84.71 89.3,111.35 216.45,6.54 39.83,-151.41 -41.13,-36.79 -97.94,-61.37 -173.74,-61.37 -239.1,0 -417.13,-30.4 -584.58,130.86 -64.57,62.18 -123.49,180.4 -177.82,267.84 -142.84,9.62 -434.74,-17.71 -545.78,15.01 -37.82,81.07 -13.52,116.91 90.46,116.91l458.04 0c91.23,0 101.15,-45.77 135.17,-104.39 183.97,-316.98 207.83,-298.15 602.17,-298.15z"/>
   </g>
   <rect class="fil1" x="0" y="-0" width="2518.14" height="2258.46"/>
  </g>
 </g>
</svg>
