<?xml version="1.0" encoding="UTF-8"?>
<!DOCTYPE svg PUBLIC "-//W3C//DTD SVG 1.1//EN" "http://www.w3.org/Graphics/SVG/1.1/DTD/svg11.dtd">
<!-- Creator: CorelDRAW 2020 (64-Bit) -->
<svg xmlns="http://www.w3.org/2000/svg" xml:space="preserve" width="65.5455mm" height="58.7862mm" version="1.1" style="shape-rendering:geometricPrecision; text-rendering:geometricPrecision; image-rendering:optimizeQuality; fill-rule:evenodd; clip-rule:evenodd"
viewBox="0 0 30950.76 27759"
 xmlns:xlink="http://www.w3.org/1999/xlink"
 xmlns:xodm="http://www.corel.com/coreldraw/odm/2003">
 <defs>
  <style type="text/css">
   <![CDATA[
    .fil1 {fill:none}
    .fil0 {fill:#00AFEF}
   ]]>
  </style>
 </defs>
 <g id="Capa_x0020_1">
  <metadata id="CorelCorpID_0Corel-Layer"/>
  <g id="_2476957153408">
   <g>
    <path class="fil0" d="M3872.77 13353.13c-2791.47,-1981.13 -1480.45,-5097.43 783.15,-5590.45 563.57,-122.73 6619.81,-247.43 7095.93,67.67 603.05,399.2 357.98,1276.79 -339.7,1416.7 -1737.19,348.34 -6070.12,-399.67 -6964.94,338.9 -395.85,326.76 -683.32,959.56 -400.05,1686.14 291.96,748.96 762.75,609.85 1476.39,980.15 864.51,448.55 276.1,1019.58 44.76,1477.76 -1039.79,2059.37 2011.39,2285.89 2099.37,2313.98 679.07,1591.98 -762.14,979.77 -759.49,2490.73 2.5,1475.26 1128.75,1010.66 1707.58,1921.35 150.44,1031.48 -714.4,1817.08 395.38,2602.45 625.01,442.36 2097.62,304.38 3013.36,304.33 3313.78,-0.28 5551.64,292.48 7694.78,-2216.9 820.64,-960.84 538.74,-1121.39 2189.7,-1109.68 1109.2,7.89 5657.13,-175 6290.45,133.16 608.95,364.35 485.09,1149.44 -94.77,1383.08 -488.02,196.63 -5480.1,11.38 -6788.1,125.89 -518.34,873.48 -1786.81,1933.58 -2945.6,2518.21 -1548.31,781.16 -2704.92,740.7 -4561.38,740.32 -4213.37,-0.85 -6861.01,719.12 -7023.78,-3802.65 -1950.15,-972.69 -1399.84,-2995.98 -1259.18,-3939.35 -1715.37,-1122.52 -1635.62,-1559.92 -1653.84,-3841.79z"/>
    <path class="fil0" d="M12573.76 5134.78c-1216.96,0 -1394.08,384.61 -1920.54,1041.16 -1097.54,1368.58 -2660.44,80.42 -489.53,-1861.04 505.59,-452.13 1203.74,-754.25 2135.44,-754.25 2938.85,0 5127.03,-373.61 7185.13,1608.46 793.58,764.26 1517.85,2217.27 2185.64,3292.01 1755.7,118.24 5343.44,-217.73 6708.2,184.49 464.88,996.49 166.12,1436.91 -1111.85,1436.91l-5629.79 0c-1121.34,0 -1243.22,-562.53 -1661.4,-1283.12 -2261.24,-3896.1 -2554.43,-3664.62 -7401.3,-3664.62z"/>
   </g>
   <rect class="fil1" x="-0.01" y="-0.02" width="30950.75" height="27758.99"/>
  </g>
 </g>
</svg>
