<?xml version="1.0" encoding="UTF-8"?>
<!DOCTYPE svg PUBLIC "-//W3C//DTD SVG 1.1//EN" "http://www.w3.org/Graphics/SVG/1.1/DTD/svg11.dtd">
<!-- Creator: CorelDRAW 2020 (64-Bit) -->
<svg xmlns="http://www.w3.org/2000/svg" xml:space="preserve" width="65.5455mm" height="58.7862mm" version="1.1" style="shape-rendering:geometricPrecision; text-rendering:geometricPrecision; image-rendering:optimizeQuality; fill-rule:evenodd; clip-rule:evenodd"
viewBox="0 0 1196.83 1073.4"
 xmlns:xlink="http://www.w3.org/1999/xlink"
 xmlns:xodm="http://www.corel.com/coreldraw/odm/2003">
 <defs>
  <style type="text/css">
   <![CDATA[
    .fil1 {fill:none}
    .fil0 {fill:#FEFEFE}
   ]]>
  </style>
 </defs>
 <g id="Capa_x0020_1">
  <metadata id="CorelCorpID_0Corel-Layer"/>
  <g id="_2476955740304">
   <g>
    <path class="fil0" d="M149.76 516.35c-107.94,-76.61 -57.25,-197.11 30.28,-216.18 21.79,-4.75 255.98,-9.57 274.39,2.62 23.32,15.44 13.84,49.37 -13.14,54.78 -67.17,13.47 -234.72,-15.45 -269.33,13.1 -15.31,12.64 -26.42,37.11 -15.47,65.2 11.29,28.96 29.49,23.58 57.09,37.9 33.43,17.34 10.68,39.43 1.73,57.14 -40.21,79.63 77.78,88.39 81.18,89.48 26.26,61.56 -29.47,37.89 -29.37,96.31 0.1,57.05 43.65,39.08 66.03,74.3 5.82,39.89 -27.62,70.26 15.29,100.63 24.17,17.11 81.11,11.77 116.52,11.77 128.14,-0.01 214.67,11.31 297.55,-85.72 31.73,-37.15 20.83,-43.36 84.67,-42.91 42.89,0.3 218.75,-6.77 243.24,5.15 23.55,14.09 18.76,44.45 -3.66,53.48 -18.87,7.6 -211.91,0.44 -262.49,4.87 -20.04,33.78 -69.09,74.77 -113.9,97.38 -59.87,30.21 -104.6,28.64 -176.38,28.63 -162.93,-0.03 -265.31,27.81 -271.6,-147.04 -75.41,-37.61 -54.13,-115.85 -48.69,-152.33 -66.33,-43.41 -63.25,-60.32 -63.95,-148.56z"/>
    <path class="fil0" d="M486.21 198.56c-47.06,0 -53.91,14.87 -74.26,40.26 -42.44,52.92 -102.88,3.11 -18.93,-71.96 19.55,-17.48 46.55,-29.17 82.57,-29.17 113.64,0 198.26,-14.45 277.84,62.2 30.69,29.55 58.69,85.74 84.52,127.3 67.89,4.57 206.62,-8.42 259.4,7.13 17.98,38.53 6.42,55.56 -42.99,55.56l-217.7 0c-43.36,0 -48.07,-21.75 -64.24,-49.62 -87.44,-150.66 -98.78,-141.71 -286.2,-141.71z"/>
   </g>
   <rect class="fil1" x="-0" y="-0" width="1196.83" height="1073.4"/>
  </g>
 </g>
</svg>
