<?xml version="1.0" encoding="UTF-8"?>
<!DOCTYPE svg PUBLIC "-//W3C//DTD SVG 1.1//EN" "http://www.w3.org/Graphics/SVG/1.1/DTD/svg11.dtd">
<!-- Creator: CorelDRAW 2020 (64-Bit) -->
<svg xmlns="http://www.w3.org/2000/svg" xml:space="preserve" width="65.5455mm" height="58.7862mm" version="1.1" style="shape-rendering:geometricPrecision; text-rendering:geometricPrecision; image-rendering:optimizeQuality; fill-rule:evenodd; clip-rule:evenodd"
viewBox="0 0 22047.46 19773.84"
 xmlns:xlink="http://www.w3.org/1999/xlink"
 xmlns:xodm="http://www.corel.com/coreldraw/odm/2003">
 <defs>
  <style type="text/css">
   <![CDATA[
    .fil1 {fill:none}
    .fil0 {fill:#00AFEF}
   ]]>
  </style>
 </defs>
 <g id="Capa_x0020_1">
  <metadata id="CorelCorpID_0Corel-Layer"/>
  <g id="_2476957163152">
   <path class="fil0" d="M7098.46 7637.69c-431.66,293.04 -2952.51,200.21 -3785.43,396.71 -1034.44,244.14 -1931.43,1247.12 -1629.37,2567.84 600.96,2627.58 4036.49,1541.54 6513.11,1459.91 83.55,933.26 -146.62,1644.71 390.39,2315.09 189.04,235.96 541.28,469.77 645.79,730.49 119.01,296.91 103.97,732.68 265.26,1097.81 683.94,1548.27 2406.52,1293.81 4264.79,1293.84 1908.22,0.03 3213.16,33.17 4538.83,-921.15 999.28,-719.39 1832.5,-1797.69 2042.94,-3537.29 103.5,-855.32 108.98,-4496.38 -10.46,-5352 -165.8,-1187.42 -1097.57,-2788.97 -1703.94,-3845.37 -866.76,-1509.96 -1855.88,-1595.23 -3992.16,-1583.93 -880.34,4.71 -1519.38,155.64 -2095.21,635.7 -361.87,301.69 -1066.73,1040.69 -1312.44,1503.6 -2215.73,-280.4 -5780.43,-2975.65 -7531.77,-1737.31 -1188.79,840.59 -1320.08,2599.73 -177.33,3479.53 921.58,709.5 2716.25,915.66 3577.01,1496.5zm2238.2 5184.15c0,1768.93 1025.18,810.21 1082.54,1953.66 101.25,2019.59 556.02,1581.03 4884.38,1581.03 2215.33,0 3875.64,-1626.78 3875.64,-3828.15l0 -4303.84c0,-1238.38 -595.04,-2046.74 -1065.35,-2882.78 -1195.22,-2124.88 -1021.59,-1900.05 -3861.78,-1900.05 -962.96,0 -1621.9,767.63 -1844.14,1359.37 398.63,306.77 1716.12,714.85 2287.24,927.64 355.07,132.33 810.62,402.06 511.42,907.96 -249.05,421.07 -680.21,266.54 -1121.72,90.92l-7139.7 -2642.98c-639.47,-230.01 -1872.26,-872.68 -2543.65,-525.61 -603.82,312.15 -917.11,1476.32 253.35,1935.16 764.16,299.54 5693.61,1913.77 5953.02,2276.21 326.61,456.28 -56.11,829.55 -489.95,895.82 -1859.58,284.06 -4226.78,226.58 -6147.71,423.39 -1521.67,155.91 -1347.49,1329.2 -881.29,1788.44 585.92,577.11 1884.47,271.48 2758.49,185.94 1031.61,-100.98 2092.45,-165.46 3128.36,-228.6 532.81,-32.46 1050.38,156.55 831.84,757.54 -189.61,521.67 -470.98,174.61 -470.98,1228.92z"/>
   <rect class="fil1" x="-0.01" y="-0.02" width="22047.46" height="19773.84"/>
  </g>
 </g>
</svg>
