<?xml version="1.0" encoding="UTF-8"?>
<!DOCTYPE svg PUBLIC "-//W3C//DTD SVG 1.1//EN" "http://www.w3.org/Graphics/SVG/1.1/DTD/svg11.dtd">
<!-- Creator: CorelDRAW 2020 (64-Bit) -->
<svg xmlns="http://www.w3.org/2000/svg" xml:space="preserve" width="65.5455mm" height="58.7861mm" version="1.1" style="shape-rendering:geometricPrecision; text-rendering:geometricPrecision; image-rendering:optimizeQuality; fill-rule:evenodd; clip-rule:evenodd"
viewBox="0 0 2438.34 2186.89"
 xmlns:xlink="http://www.w3.org/1999/xlink"
 xmlns:xodm="http://www.corel.com/coreldraw/odm/2003">
 <defs>
  <style type="text/css">
   <![CDATA[
    .fil1 {fill:none}
    .fil0 {fill:#173153}
   ]]>
  </style>
 </defs>
 <g id="Capa_x0020_1">
  <metadata id="CorelCorpID_0Corel-Layer"/>
  <g id="_2153577909424">
   <path class="fil0" d="M1653.29 844.69c47.74,32.41 326.54,22.14 418.65,43.87 114.4,27 213.61,137.92 180.2,283.99 -66.46,290.59 -446.41,170.48 -720.32,161.46 -9.24,103.21 16.22,181.89 -43.18,256.04 -20.9,26.1 -59.86,51.95 -71.42,80.79 -13.16,32.84 -11.5,81.03 -29.34,121.41 -75.64,171.24 -266.15,143.09 -471.67,143.09 -211.04,0 -355.36,3.67 -501.97,-101.87 -110.51,-79.57 -202.66,-198.82 -225.94,-391.21 -11.44,-94.6 -12.05,-497.28 1.16,-591.91 18.33,-131.32 121.39,-308.45 188.45,-425.28 95.86,-166.99 205.25,-176.42 441.51,-175.17 97.37,0.52 168.04,17.21 231.72,70.31 40.02,33.37 117.97,115.1 145.15,166.29 245.05,-31.01 639.29,-329.09 832.98,-192.14 131.48,92.96 145.99,287.52 19.61,384.82 -101.92,78.47 -300.4,101.27 -395.6,165.51zm-247.53 573.34c0,195.64 -113.38,89.61 -119.72,216.06 -11.2,223.36 -61.5,174.86 -540.19,174.86 -245,0 -428.63,-179.91 -428.63,-423.37l0 -475.98c0,-136.96 65.81,-226.36 117.82,-318.82 132.19,-235 112.99,-210.14 427.09,-210.14 106.5,0 179.38,84.9 203.96,150.34 -44.09,33.93 -189.8,79.06 -252.96,102.6 -39.27,14.63 -89.65,44.46 -56.56,100.41 27.54,46.57 75.23,29.48 124.06,10.06l789.61 -292.3c70.73,-25.44 207.07,-96.51 281.32,-58.13 66.78,34.52 101.43,163.27 -28.02,214.02 -84.51,33.13 -629.69,211.66 -658.38,251.74 -36.13,50.47 6.21,91.74 54.19,99.08 205.66,31.41 467.46,25.06 679.9,46.82 168.29,17.24 149.03,147 97.47,197.79 -64.8,63.83 -208.41,30.03 -305.08,20.57 -114.09,-11.17 -231.42,-18.3 -345.98,-25.28 -58.93,-3.59 -116.17,17.31 -92,83.78 20.97,57.69 52.09,19.31 52.09,135.91z"/>
   <rect class="fil1" x="0" y="-0" width="2438.34" height="2186.89"/>
  </g>
 </g>
</svg>
