<?xml version="1.0" encoding="UTF-8"?>
<!DOCTYPE svg PUBLIC "-//W3C//DTD SVG 1.1//EN" "http://www.w3.org/Graphics/SVG/1.1/DTD/svg11.dtd">
<!-- Creator: CorelDRAW 2020 (64-Bit) -->
<svg xmlns="http://www.w3.org/2000/svg" xml:space="preserve" width="65.5455mm" height="58.7862mm" version="1.1" style="shape-rendering:geometricPrecision; text-rendering:geometricPrecision; image-rendering:optimizeQuality; fill-rule:evenodd; clip-rule:evenodd"
viewBox="0 0 1215.81 1090.43"
 xmlns:xlink="http://www.w3.org/1999/xlink"
 xmlns:xodm="http://www.corel.com/coreldraw/odm/2003">
 <defs>
  <style type="text/css">
   <![CDATA[
    .fil1 {fill:none}
    .fil0 {fill:#FEFEFE}
   ]]>
  </style>
 </defs>
 <g id="Capa_x0020_1">
  <metadata id="CorelCorpID_0Corel-Layer"/>
  <g id="_2476950544384">
   <path class="fil0" d="M391.45 421.18c-23.8,16.16 -162.82,11.04 -208.75,21.88 -57.04,13.46 -106.51,68.77 -89.85,141.6 33.14,144.9 222.59,85.01 359.17,80.51 4.61,51.46 -8.09,90.7 21.53,127.67 10.42,13.01 29.85,25.91 35.61,40.28 6.56,16.37 5.73,40.4 14.63,60.54 37.72,85.38 132.71,71.35 235.18,71.35 105.23,0 177.19,1.83 250.29,-50.8 55.11,-39.67 101.05,-99.13 112.66,-195.06 5.71,-47.17 6.01,-247.95 -0.58,-295.14 -9.14,-65.48 -60.53,-153.8 -93.96,-212.05 -47.8,-83.27 -102.34,-87.97 -220.15,-87.35 -48.55,0.26 -83.79,8.58 -115.54,35.06 -19.96,16.64 -58.82,57.39 -72.37,82.92 -122.19,-15.46 -318.76,-164.09 -415.34,-95.8 -65.56,46.35 -72.8,143.36 -9.78,191.88 50.82,39.13 149.79,50.49 197.26,82.53zm123.43 285.88c0,97.55 56.53,44.68 59.7,107.74 5.58,111.37 30.66,87.19 269.35,87.19 122.16,0 213.72,-89.71 213.72,-211.1l0 -237.34c0,-68.29 -32.81,-112.87 -58.75,-158.97 -65.91,-117.18 -56.34,-104.78 -212.96,-104.78 -53.1,0 -89.44,42.33 -101.7,74.96 21.98,16.92 94.64,39.42 126.13,51.15 19.58,7.3 44.7,22.17 28.2,50.07 -13.73,23.22 -37.51,14.7 -61.86,5.01l-393.72 -145.75c-35.26,-12.68 -103.25,-48.12 -140.27,-28.98 -33.3,17.21 -50.57,81.41 13.97,106.71 42.14,16.52 313.98,105.54 328.28,125.52 18.01,25.16 -3.09,45.75 -27.02,49.4 -102.55,15.66 -233.09,12.49 -339.02,23.35 -83.91,8.6 -74.31,73.3 -48.6,98.62 32.31,31.82 103.92,14.97 152.12,10.25 56.89,-5.57 115.39,-9.12 172.51,-12.61 29.38,-1.79 57.92,8.63 45.87,41.77 -10.46,28.77 -25.97,9.63 -25.97,67.77z"/>
   <rect class="fil1" x="-0" y="-0" width="1215.81" height="1090.43"/>
  </g>
 </g>
</svg>
